<?xml version="1.0" standalone="no"?>
<!DOCTYPE svg PUBLIC "-//W3C//DTD SVG 20010904//EN"
 "http://www.w3.org/TR/2001/REC-SVG-20010904/DTD/svg10.dtd">
<svg version="1.0" xmlns="http://www.w3.org/2000/svg"
 width="100.000000pt" height="26.000000pt" viewBox="0 0 100.000000 26.000000"
 preserveAspectRatio="xMidYMid meet">

<g transform="translate(0.000000,26.000000) scale(0.100000,-0.100000)"
fill="#000000" stroke="none">
<path d="M32 227 c-32 -34 -31 -109 3 -142 33 -34 87 -34 121 0 25 25 25 45 0
41 -7 -1 -21 -9 -30 -19 -21 -20 -36 -21 -60 -4 -22 16 -26 78 -7 101 17 21
57 21 69 0 5 -9 18 -14 31 -12 l23 3 -22 28 c-29 36 -96 39 -128 4z"/>
<path d="M200 155 c0 -87 2 -95 19 -95 17 0 20 8 23 53 3 45 6 52 26 55 21 3
22 0 22 -52 0 -49 2 -56 20 -56 18 0 20 7 20 60 0 52 -3 62 -24 75 -19 13 -29
14 -45 5 -19 -10 -21 -8 -21 20 0 23 -4 30 -20 30 -19 0 -20 -7 -20 -95z"/>
<path d="M850 220 c0 -28 -2 -30 -20 -20 -42 23 -86 -28 -75 -87 7 -41 45 -64
75 -45 12 7 21 8 25 2 3 -6 13 -10 21 -10 11 0 14 19 14 95 0 88 -1 95 -20 95
-16 0 -20 -7 -20 -30z m0 -86 c0 -38 -21 -54 -45 -34 -19 16 -19 44 0 64 24
23 45 9 45 -30z"/>
<path d="M394 200 c-24 -10 -39 -28 -30 -37 3 -4 17 -1 30 6 23 13 46 9 46 -9
0 -4 -16 -12 -36 -17 -45 -10 -64 -35 -48 -60 8 -13 26 -18 68 -20 l56 -1 0
58 c0 34 -5 62 -12 68 -21 16 -52 21 -74 12z m33 -107 c-16 -17 -37 -10 -37
12 0 15 43 25 49 12 2 -5 -4 -16 -12 -24z"/>
<path d="M561 201 c-7 -4 -23 -6 -37 -3 -24 4 -24 3 -24 -67 0 -64 2 -71 19
-71 17 0 20 8 23 53 3 45 6 52 26 55 12 2 22 10 22 17 0 18 -13 26 -29 16z"/>
<path d="M615 186 c-14 -14 -25 -37 -25 -51 0 -44 66 -95 85 -65 11 18 23 11
18 -11 -7 -26 -26 -34 -50 -20 -11 5 -25 6 -32 2 -20 -13 16 -35 55 -34 56 2
64 15 64 109 l0 84 -27 -1 c-16 -1 -36 2 -45 6 -12 4 -25 -1 -43 -19z m75 -52
c0 -38 -21 -54 -45 -34 -19 16 -19 44 0 64 24 23 45 9 45 -30z"/>
<path d="M934 106 c-10 -26 4 -48 28 -44 17 2 23 10 23 28 0 18 -6 26 -23 28
-13 2 -25 -3 -28 -12z"/>
</g>
</svg>
